<?xml version="1.0" encoding="utf-8"?>
<!-- Generator: Adobe Illustrator 16.0.0, SVG Export Plug-In . SVG Version: 6.00 Build 0)  -->
<!DOCTYPE svg PUBLIC "-//W3C//DTD SVG 1.1//EN" "http://www.w3.org/Graphics/SVG/1.1/DTD/svg11.dtd">
<svg version="1.1" id="Calque_1" xmlns="http://www.w3.org/2000/svg" xmlns:xlink="http://www.w3.org/1999/xlink" x="0px" y="0px"
	 width="888px" height="333px" viewBox="0 0 888 333" enable-background="new 0 0 888 333" xml:space="preserve">
<g>
	<defs>
		<rect id="SVGID_1_" x="-56" y="-333.5" width="1000" height="1000"/>
	</defs>
	<clipPath id="SVGID_2_">
		<use xlink:href="#SVGID_1_"  overflow="visible"/>
	</clipPath>
	<path clip-path="url(#SVGID_2_)" fill="#C7E351" d="M230.764,84.119c-16.459-21.908-46.995-27.625-70.992-14.394
		c-17.593,9.7-35.186,19.4-52.779,29.1c-16.367,0.277-32.298,7.645-42.655,21.431c-6.555,8.725-10.264,18.995-10.04,29.203
		c0.217,9.962,4.179,19.843,10.829,28.171c16.726,20.946,46.567,26.021,69.986,12.982l52.09-29.001
		c16.211,0.086,32.141-6.805,42.772-20.118c6.651-8.329,10.612-18.209,10.83-28.17C241.029,103.114,237.32,92.845,230.764,84.119
		 M178.296,94.861c9.892-5.391,22.48-3.062,29.265,5.865c2.702,3.556,4.231,7.741,4.138,11.901
		c-0.089,4.059-1.722,8.086-4.464,11.479c-6.894,8.536-19.195,10.604-28.849,5.291l-31.572-17.377
		C157.308,106.3,167.802,100.58,178.296,94.861 M116.717,165.533c-9.654,5.313-21.955,3.245-28.85-5.29
		c-2.741-3.394-4.374-7.42-4.464-11.48c-0.092-4.16,1.437-8.344,4.139-11.9c6.785-8.928,19.372-11.257,29.264-5.866l31.483,17.16
		L116.717,165.533z"/>
	<path clip-path="url(#SVGID_2_)" fill="#74DD54" d="M231.501,156.686c-16.459-21.909-46.995-27.625-70.991-14.394
		c-17.594,9.7-35.186,19.399-52.78,29.099c-16.367,0.277-32.298,7.646-42.654,21.432c-6.556,8.726-10.265,18.995-10.041,29.204
		c0.218,9.961,4.179,19.841,10.83,28.17c16.725,20.945,46.566,26.021,69.985,12.982l52.09-29.001
		c16.211,0.086,32.141-6.805,42.772-20.118c6.651-8.328,10.612-18.209,10.83-28.17C241.766,175.681,238.057,165.412,231.501,156.686
		 M179.034,167.428c9.891-5.392,22.479-3.062,29.264,5.865c2.702,3.556,4.231,7.74,4.139,11.9c-0.09,4.06-1.723,8.086-4.464,11.479
		c-6.895,8.535-19.196,10.604-28.85,5.29l-31.572-17.376C158.045,178.867,168.539,173.147,179.034,167.428 M117.454,238.1
		c-9.654,5.313-21.955,3.245-28.85-5.29c-2.741-3.395-4.374-7.421-4.464-11.479c-0.092-4.16,1.437-8.345,4.139-11.9
		c6.785-8.928,19.373-11.258,29.264-5.866l31.483,17.159L117.454,238.1z"/>
	<path clip-path="url(#SVGID_2_)" fill="#FFFFFF" d="M269.143,191.27V177.1H297.6c0.767,0,1.458-0.174,2.074-0.52
		c0.614-0.346,1.112-0.824,1.497-1.439c0.384-0.613,0.576-1.268,0.576-1.959c0-0.766-0.192-1.457-0.576-2.074
		c-0.385-0.613-0.883-1.094-1.497-1.439c-0.616-0.346-1.307-0.518-2.074-0.518H287.23c-3.841,0-7.316-0.635-10.426-1.902
		c-3.111-1.268-5.57-3.264-7.374-5.99c-1.806-2.726-2.707-6.28-2.707-10.657c0-3.379,0.824-6.453,2.477-9.218
		c1.65-2.764,3.917-4.991,6.797-6.682c2.88-1.688,6.049-2.535,9.505-2.535h28.457v14.287h-25.692c-1.077,0-1.979,0.345-2.708,1.037
		c-0.73,0.691-1.094,1.537-1.094,2.534c0,1.077,0.364,1.978,1.094,2.708c0.729,0.73,1.631,1.094,2.708,1.094h10.138
		c4.301,0,8.008,0.634,11.118,1.901c3.111,1.268,5.53,3.284,7.259,6.048c1.728,2.766,2.591,6.338,2.591,10.715
		c0,3.457-0.863,6.607-2.591,9.447c-1.729,2.844-4.033,5.109-6.913,6.799s-6.126,2.533-9.735,2.533H269.143z"/>
	<path clip-path="url(#SVGID_2_)" fill="#FFFFFF" d="M328.937,191.27v-34.908c0-4.839,1.132-9.197,3.399-13.076
		c2.265-3.878,5.51-6.931,9.735-9.16c4.223-2.227,9.255-3.341,15.093-3.341c2.918,0,5.605,0.328,8.065,0.98
		c2.457,0.653,4.703,1.537,6.739,2.649c2.034,1.115,3.782,2.439,5.242,3.975h0.23c1.536-1.536,3.322-2.86,5.358-3.975
		c2.034-1.112,4.301-1.996,6.797-2.649c2.495-0.652,5.203-0.98,8.123-0.98c5.836,0,10.867,1.114,15.092,3.341
		c4.223,2.229,7.489,5.282,9.793,9.16c2.304,3.879,3.456,8.237,3.456,13.076v34.908h-17.973v-34.332c0-1.919-0.48-3.667-1.44-5.242
		c-0.961-1.573-2.246-2.861-3.859-3.86c-1.613-0.997-3.456-1.498-5.53-1.498c-2.074,0-3.937,0.501-5.588,1.498
		c-1.652,0.999-2.938,2.287-3.859,3.86c-0.922,1.575-1.383,3.323-1.383,5.242v34.332h-17.858v-34.332c0-1.919-0.48-3.667-1.44-5.242
		c-0.961-1.573-2.266-2.861-3.917-3.86c-1.652-0.997-3.514-1.498-5.588-1.498c-2.073,0-3.937,0.501-5.587,1.498
		c-1.653,0.999-2.938,2.287-3.86,3.86c-0.922,1.575-1.383,3.323-1.383,5.242v34.332H328.937z"/>
	<path clip-path="url(#SVGID_2_)" fill="#FFFFFF" d="M461.888,192.652c-5.224,0-9.832-1.344-13.825-4.031
		c-3.994-2.689-7.105-6.318-9.332-10.889c-2.228-4.568-3.341-9.734-3.341-15.496c0-5.991,1.305-11.348,3.918-16.072
		c2.609-4.723,6.315-8.468,11.117-11.233c4.799-2.765,10.464-4.147,16.993-4.147c6.605,0,12.23,1.365,16.879,4.09
		c4.646,2.727,8.218,6.451,10.714,11.175c2.495,4.724,3.745,10.005,3.745,15.841v29.379h-17.513v-9.447h-0.461
		c-1.076,2.074-2.459,3.938-4.147,5.588c-1.69,1.652-3.744,2.938-6.163,3.859C468.052,192.191,465.189,192.652,461.888,192.652
		 M467.188,177.215c2.688,0,5.05-0.672,7.086-2.018c2.034-1.342,3.589-3.205,4.666-5.586c1.074-2.381,1.612-5.03,1.612-7.951
		c0-2.841-0.538-5.415-1.612-7.719c-1.077-2.304-2.632-4.128-4.666-5.473c-2.036-1.342-4.398-2.016-7.086-2.016
		c-2.765,0-5.186,0.674-7.258,2.016c-2.074,1.345-3.649,3.169-4.724,5.473c-1.076,2.304-1.613,4.878-1.613,7.719
		c0,2.92,0.537,5.57,1.613,7.951c1.074,2.381,2.649,4.244,4.724,5.586C462.002,176.543,464.423,177.215,467.188,177.215"/>
	<path clip-path="url(#SVGID_2_)" fill="#FFFFFF" d="M510.391,191.27v-41.706c0-5.375,1.535-9.6,4.608-12.673
		c3.07-3.071,7.334-4.608,12.788-4.608h17.166v14.516h-12.788c-1.076,0-1.998,0.366-2.765,1.095c-0.77,0.73-1.152,1.67-1.152,2.822
		v40.554H510.391z"/>
	<path clip-path="url(#SVGID_2_)" fill="#FFFFFF" d="M599.446,146.799v-14.632h-16.244v-14.401h-17.973v14.401h-9.679v14.632h9.679
		v27.189c0,5.301,1.535,9.506,4.608,12.615c3.07,3.111,7.334,4.666,12.788,4.666h16.82v-14.977h-12.903
		c-0.922,0-1.71-0.326-2.361-0.98c-0.654-0.65-0.979-1.439-0.979-2.361v-26.152H599.446z"/>
	<path clip-path="url(#SVGID_2_)" fill="#FFFFFF" d="M615.889,191.27v-80.646h46.774c3.993,0,7.622,0.884,10.888,2.65
		c3.264,1.768,5.876,4.225,7.834,7.373c1.959,3.151,2.938,6.875,2.938,11.176c0,2.534-0.48,4.954-1.44,7.258
		c-0.961,2.304-2.304,4.34-4.032,6.106c-1.729,1.768-3.707,3.188-5.934,4.263c2.61,1.077,4.935,2.612,6.972,4.608
		c2.033,1.998,3.646,4.303,4.838,6.912c1.189,2.613,1.785,5.415,1.785,8.412c0,4.377-1.019,8.219-3.053,11.521
		c-2.036,3.304-4.743,5.858-8.122,7.661c-3.381,1.805-7.144,2.707-11.291,2.707H615.889z M635.243,142.767h21.775
		c1.536,0,2.897-0.364,4.09-1.095c1.189-0.729,2.131-1.688,2.821-2.88c0.692-1.19,1.038-2.515,1.038-3.975
		c0-1.535-0.346-2.898-1.038-4.09c-0.69-1.19-1.632-2.149-2.821-2.88c-1.192-0.729-2.554-1.094-4.09-1.094h-21.775V142.767z
		 M635.243,175.256h23.733c1.613,0,3.054-0.383,4.32-1.152c1.268-0.768,2.285-1.803,3.054-3.111
		c0.767-1.305,1.151-2.725,1.151-4.263c0-1.611-0.385-3.053-1.151-4.319c-0.769-1.267-1.786-2.284-3.054-3.053
		c-1.267-0.767-2.707-1.152-4.32-1.152h-23.733V175.256z"/>
	<path clip-path="url(#SVGID_2_)" fill="#FFFFFF" d="M738.01,191.27c-6.605-0.074-12.558-1.152-17.857-3.225
		c-5.3-2.074-9.793-4.916-13.479-8.525s-6.529-7.854-8.525-12.732c-1.998-4.875-2.996-10.156-2.996-15.841
		c0-5.683,0.998-10.963,2.996-15.842c1.996-4.876,4.856-9.119,8.583-12.73c3.725-3.609,8.218-6.452,13.479-8.526
		c5.26-2.074,11.194-3.148,17.8-3.225h12.442v16.129h-11.981c-3.611,0.077-6.895,0.731-9.851,1.958
		c-2.958,1.23-5.492,2.92-7.604,5.07c-2.112,2.151-3.727,4.685-4.839,7.604c-1.114,2.92-1.671,6.107-1.671,9.563
		c0,3.456,0.557,6.644,1.671,9.562c1.112,2.921,2.727,5.455,4.839,7.605c2.111,2.15,4.646,3.842,7.604,5.068
		c2.956,1.23,6.239,1.883,9.851,1.959h11.981v16.129H738.01z"/>
	<polygon clip-path="url(#SVGID_2_)" fill="#FFFFFF" points="763.549,191.27 763.549,110.624 782.904,110.624 782.904,142.306 
		814.357,142.306 814.357,110.624 833.712,110.624 833.712,191.27 814.357,191.27 814.357,158.436 782.904,158.436 782.904,191.27 	
		"/>
</g>
</svg>
