<?xml version="1.0" encoding="UTF-8"?>
<svg id="Capa_1" data-name="Capa 1" xmlns="http://www.w3.org/2000/svg" viewBox="0 0 519.68 519.68">
  <defs>
    <style>
      .cls-1 {
        fill: #606060;
      }
    </style>
  </defs>
  <path class="cls-1" d="m259.84,519.68C116.56,519.68,0,403.12,0,259.84S116.56,0,259.84,0s259.84,116.56,259.84,259.84-116.57,259.84-259.84,259.84Zm0-503.74C125.35,15.94,15.94,125.35,15.94,259.84s109.41,243.9,243.9,243.9,243.9-109.41,243.9-243.9S394.33,15.94,259.84,15.94Z"/>
  <path class="cls-1" d="m344.12,430.4l-52.73-25.14c-3.78-1.8-5.39-6.34-3.59-10.12l122.23-256.4c1.8-3.78,6.34-5.39,10.12-3.59l52.73,25.14c3.78,1.8,5.39,6.34,3.59,10.12l-122.23,256.4c-1.8,3.78-6.34,5.39-10.12,3.59Zm-42.58-91.86l87.52-180.76s-2.11-14.07-17.25-11.52c0,0-5.85,6.47-12.15,10.25-4.94,2.97-11.36,1.01-13.77-4.22l-5.05-10.97c-2.43-5.29-8.97-7.24-13.9-4.14l-11.98,7.53c-4.35,2.73-10.07,1.58-13.03-2.62l-8.69-12.36c-3.3-4.69-9.94-5.49-14.25-1.71l-10.52,9.21c-3.75,3.28-9.38,3.17-13-.26l-10.67-10.12c-3.99-3.79-10.34-3.47-13.94.69l-10.32,11.93c-3.06,3.54-8.21,4.37-12.23,1.98l-13.09-7.78c-4.95-2.94-11.36-.93-13.73,4.32l-4.54,10.04c-2.15,4.76-7.69,6.94-12.51,4.93l-13.91-5.8c-4.63-1.93-9.97,0-12.28,4.46l-4.32,8.32-4.63-10.16c-3.41-7.49-12.14-10.96-19.76-7.84l-47.83,19.53c-7.86,3.21-11.62,12.2-8.38,20.06l97.61,236.36c3.16,7.65,11.82,11.42,19.58,8.5l46.86-17.61c7.82-2.94,11.85-11.59,9.07-19.47l-67.73-191.66c-1.12-3.16.45-6.65,3.57-7.9l.1-.04c3.31-1.34,7.07.36,8.26,3.73l57.76,163.79c.96,2.71,5.01,1.63,4.49-1.2l-33.21-178.66c-.63-3.42,1.94-6.59,5.41-6.67h0c2.79-.07,5.21,1.91,5.7,4.66l30.81,173.75c.5,2.81,4.65,2.43,4.62-.43l-1.71-178.51c-.03-3.46,2.91-6.2,6.36-5.92h0c3.02.25,5.37,2.75,5.41,5.79l2.47,182.4c.04,2.87,4.22,3.14,4.63.31l26.71-181.37c.43-2.89,3.15-4.87,6.03-4.39h0c2.78.47,4.69,3.06,4.31,5.86l-24.6,180.54c-.39,2.85,3.71,3.74,4.54.99l52.73-175.43c.99-3.3,4.41-5.23,7.74-4.38h0c3.57.91,5.65,4.63,4.55,8.15l-48.2,154.15c-.86,2.75,3.06,4.31,4.32,1.71Z"/>
</svg>